<?xml version="1.0" standalone="no"?>
<!DOCTYPE svg PUBLIC "-//W3C//DTD SVG 20010904//EN"
 "http://www.w3.org/TR/2001/REC-SVG-20010904/DTD/svg10.dtd">
<svg version="1.0" xmlns="http://www.w3.org/2000/svg"
 width="261.000000pt" height="273.000000pt" viewBox="0 0 261.000000 273.000000"
 preserveAspectRatio="xMidYMid meet">

<g transform="translate(0.000000,273.000000) scale(0.100000,-0.100000)"
fill="#000000" stroke="none">
<path d="M0 1365 l0 -1365 1305 0 1305 0 0 1365 0 1365 -1305 0 -1305 0 0
-1365z m1336 561 c3 -8 4 -26 2 -40 -3 -24 -4 -22 -20 14 -14 34 -14 40 -2 40
8 0 17 -6 20 -14z m78 -93 c18 -36 21 -63 6 -63 -5 0 -10 8 -10 18 0 9 -5 24
-11 32 -8 11 -9 8 -5 -15 4 -16 9 -45 11 -64 10 -65 35 -72 35 -9 0 23 3 38 7
34 13 -12 10 -160 -3 -173 -7 -7 -15 -18 -17 -25 -4 -9 -10 -8 -21 6 -21 26
-20 40 0 32 14 -5 15 -4 5 8 -8 10 -9 21 -1 40 13 35 13 36 -5 36 -8 0 -15 -7
-15 -15 0 -9 -7 -18 -15 -21 -19 -7 -20 -38 -2 -56 25 -25 27 -60 6 -90 -11
-15 -26 -28 -32 -28 -8 0 -8 3 1 9 7 4 14 17 15 29 0 11 5 18 9 16 10 -6 9 5
-2 31 -7 17 -9 17 -9 3 -1 -10 -6 -18 -12 -18 -6 0 -8 -7 -5 -16 5 -14 1 -15
-29 -10 -41 8 -44 1 -10 -30 22 -21 23 -24 9 -38 -23 -23 -63 -31 -96 -18 -16
6 -44 8 -62 5 -21 -3 -36 -1 -41 7 -5 9 0 11 21 8 16 -3 23 -3 17 -1 -15 5
-17 29 -3 38 6 3 13 -1 16 -9 10 -26 26 -6 20 25 -5 24 2 37 39 76 25 27 45
52 45 56 0 12 27 37 39 37 12 0 31 33 31 52 -1 7 -8 0 -16 -15 -23 -42 -26
-27 -9 39 8 32 15 66 15 75 0 10 9 21 20 24 16 5 19 12 14 33 l-7 27 20 -25
c11 -14 28 -39 37 -57z m-266 -422 c47 11 52 11 52 0 0 -5 -16 -12 -35 -15
-19 -4 -38 -12 -42 -19 -14 -23 -78 -65 -91 -60 -7 3 -10 -1 -7 -10 9 -21 -17
-38 -33 -21 -10 11 -10 14 1 14 8 0 19 12 26 28 7 15 19 34 26 42 59 65 60 65
63 49 2 -14 9 -15 40 -8z m-168 -156 c0 -5 -5 -3 -10 5 -5 8 -10 20 -10 25 0
6 5 3 10 -5 5 -8 10 -19 10 -25z m-30 -51 c-7 -19 -15 -33 -18 -30 -3 3 1 25
8 47 8 23 16 37 18 30 2 -6 -2 -27 -8 -47z m710 26 c0 -5 -4 -10 -10 -10 -5 0
-10 5 -10 10 0 6 5 10 10 10 6 0 10 -4 10 -10z m-250 -384 c0 -3 -4 -8 -10
-11 -5 -3 -10 -1 -10 4 0 6 5 11 10 11 6 0 10 -2 10 -4z"/>
<path d="M1355 1840 c3 -5 8 -10 11 -10 2 0 4 5 4 10 0 6 -5 10 -11 10 -5 0
-7 -4 -4 -10z"/>
<path d="M1342 1800 c0 -19 2 -27 5 -17 2 9 2 25 0 35 -3 9 -5 1 -5 -18z"/>
<path d="M1257 1602 c-19 -21 -22 -32 -7 -32 10 0 34 39 27 46 -2 2 -11 -4
-20 -14z"/>
<path d="M1210 1545 c-7 -8 -8 -15 -2 -15 5 0 15 7 22 15 7 8 8 15 2 15 -5 0
-15 -7 -22 -15z"/>
<path d="M1247 1474 c-11 -11 3 -24 24 -24 12 0 19 5 17 13 -5 14 -31 21 -41
11z"/>
<path d="M1085 1380 c-3 -5 -1 -10 4 -10 6 0 11 5 11 10 0 6 -2 10 -4 10 -3 0
-8 -4 -11 -10z"/>
<path d="M1040 1350 c0 -5 5 -10 10 -10 6 0 10 5 10 10 0 6 -4 10 -10 10 -5 0
-10 -4 -10 -10z"/>
</g>
</svg>
