<?xml version="1.0" encoding="UTF-8"?>
<svg version="1.1" xmlns="http://www.w3.org/2000/svg" width="469" height="490">
<path d="M0 0 C7.69405841 0.64768561 11.1932965 5.37691987 16 11 C27.04770283 25.86534531 33.05928587 43.06612373 30.50390625 61.59765625 C26.94926919 82.96565913 19.95462004 100.56407395 6.2734375 117.41162109 C5.00787203 118.99018109 3.78009947 120.59125711 2.5625 122.20703125 C-2.33835862 128.71035849 -7.46256434 134.95459932 -12.80444336 141.10107422 C-15.92327861 144.70078715 -18.88771596 148.34779212 -21.62109375 152.25390625 C-23 154 -23 154 -25.37890625 156.30859375 C-28.15561897 159.15979355 -30.36650291 162.16173208 -32.5 165.5 C-32.88800781 166.10513428 -33.27601563 166.71026855 -33.67578125 167.33374023 C-41.8229845 180.45543778 -45.49531435 195.75918071 -42.60302734 211.10644531 C-41.65936967 214.83106865 -40.41293973 218.42980408 -39 222 C-44.85435551 222 -46.9565162 218.96706057 -51 215 C-51.81210938 214.21238281 -52.62421875 213.42476562 -53.4609375 212.61328125 C-67.50753395 198.15609198 -72.55241217 182.17221993 -72.41796875 162.22753906 C-71.66456917 134.68136703 -55.28391801 113.88483818 -38 94 C-6.46812526 58.32555241 -6.46812526 58.32555241 4 13 C3.17942567 10.07037506 2.2636177 7.51258997 0.875 4.8125 C0 3 0 3 0 0 Z " fill="#570965" transform="translate(267,181)"/>
<path d="M0 0 C7.46201014 0.80525289 12.72839459 7.01909679 17.30175781 12.58398438 C29.49552249 28.54078141 34.72771543 44.98953187 32.4375 65 C28.62177528 86.91531367 17.15545343 103.41203594 3 120 C2.21955322 120.91894043 2.21955322 120.91894043 1.42333984 121.85644531 C-2.94027516 126.98962064 -7.33178403 132.09824481 -11.7734375 137.1640625 C-30.24966736 158.38765036 -43.90816919 179.97351558 -43 209 C-42.75874242 212.02403893 -42.40781511 214.99236359 -42 218 C-48.60756047 217.23491405 -51.85005363 212.84873458 -56 208 C-69.82200082 189.27697101 -73.17690819 169.55627113 -69.75 146.7578125 C-65.38614008 124.89305602 -52.9524433 108.7324414 -39 92 C-38.39671875 91.26007813 -37.7934375 90.52015625 -37.171875 89.7578125 C-35.82733735 88.13261893 -34.42057475 86.55916741 -33 85 C-32.34 85 -31.68 85 -31 85 C-30.6596875 84.16275391 -30.6596875 84.16275391 -30.3125 83.30859375 C-28.62565668 80.34155684 -26.48093414 78.40599603 -24 76.0625 C-8.89349662 61.34033521 3.66400568 43.08472741 4.5 21.375 C4.32306631 15.42560463 2.82446331 10.1799693 0.875 4.58203125 C0 2 0 2 0 0 Z " fill="#16418B" transform="translate(233,139)"/>
<path d="M0 0 C0.33 0 0.66 0 1 0 C2.63848111 14.09093755 -8.08030944 29.22722043 -16.48828125 39.86425781 C-18.52766477 42.38818469 -20.59221022 44.89021787 -22.66796875 47.38427734 C-24.35121269 49.42601276 -25.96079606 51.51891332 -27.5625 53.625 C-30.90373014 57.95713418 -34.45654056 62.0989784 -38.01049805 66.25634766 C-41.02937083 69.80358863 -43.90133369 73.40834459 -46.5859375 77.21875 C-48 79 -48 79 -50.3828125 81.3125 C-53.15801519 84.16226037 -55.36760504 87.16345656 -57.5 90.5 C-57.88800781 91.10513428 -58.27601563 91.71026855 -58.67578125 92.33374023 C-66.8229845 105.45543778 -70.49531435 120.75918071 -67.60302734 136.10644531 C-66.65936967 139.83106865 -65.41293973 143.42980408 -64 147 C-69.85405565 147 -71.95757537 143.96667221 -76 140 C-76.87011719 139.154375 -77.74023438 138.30875 -78.63671875 137.4375 C-83.64208521 132.29329856 -86.85861485 128.26849307 -88.421875 121.22265625 C-89.25581212 118.01650609 -91.09270665 115.67021068 -93 113 C-96.35198574 102.40326844 -94.90229967 88.75092452 -90 79 C-89.43925781 77.86884766 -89.43925781 77.86884766 -88.8671875 76.71484375 C-88.58101562 76.14894531 -88.29484375 75.58304687 -88 75 C-87.34 75 -86.68 75 -86 75 C-85.731875 74.46375 -85.46375 73.9275 -85.1875 73.375 C-84.795625 72.59125 -84.40375 71.8075 -84 71 C-83.5875 70.030625 -83.175 69.06125 -82.75 68.0625 C-80.59380616 64.28916077 -78.50790353 62.53763234 -75 60 C-74.34 60 -73.68 60 -73 60 C-73 59.34 -73 58.68 -73 58 C-72.34 58 -71.68 58 -71 58 C-70.67 57.01 -70.34 56.02 -70 55 C-69.01 55 -68.02 55 -67 55 C-67 54.34 -67 53.68 -67 53 C-66.401875 52.731875 -65.80375 52.46375 -65.1875 52.1875 C-62.9700287 51.12703272 -62.9700287 51.12703272 -61.5 49.4375 C-59.72539815 47.73683989 -58.38993744 47.41205818 -56 47 C-56 46.34 -56 45.68 -56 45 C-55.154375 44.55269531 -54.30875 44.10539062 -53.4375 43.64453125 C-52.303125 43.03996094 -51.16875 42.43539062 -50 41.8125 C-49.40856201 41.49732422 -48.81712402 41.18214844 -48.20776367 40.85742188 C-44.81435915 39.03180635 -41.53342732 37.1135475 -38.3125 35 C-37.219375 34.34 -36.12625 33.68 -35 33 C-34.01 33.495 -34.01 33.495 -33 34 C-27.72472912 34 -17.51632684 23.13545841 -13.66796875 19.66796875 C-8.86088071 14.86088071 -5.64919366 8.86537681 -2.234375 3.0390625 C-1 1 -1 1 0 0 Z " fill="#9819A2" transform="translate(292,256)"/>
<path d="M0 0 C7.58320086 0.75420623 13.00785659 7.71967884 17.90625 13.08984375 C21.79425557 17.93993233 23.91467552 23.18952769 26 29 C26.35320312 29.87140625 26.70640625 30.7428125 27.0703125 31.640625 C30.86562399 41.27242392 29.14812142 52.47546342 27.4375 62.3828125 C26.9450412 64.88652096 26.9450412 64.88652096 27 67 C26.34 67 25.68 67 25 67 C24.896875 67.639375 24.79375 68.27875 24.6875 68.9375 C24.460625 69.618125 24.23375 70.29875 24 71 C22.515 71.495 22.515 71.495 21 72 C20.731875 72.70125 20.46375 73.4025 20.1875 74.125 C17.17242283 81.42466052 10.81041443 85.99430808 4.5 90.375 C3.76652344 90.90738281 3.03304687 91.43976563 2.27734375 91.98828125 C-1.95377295 94.96293038 -4.85433644 96.22094916 -10 97 C-13.31806219 98.4904826 -16.46160308 100.27079152 -19.625 102.0625 C-20.51147217 102.55838623 -21.39794434 103.05427246 -22.3112793 103.56518555 C-34.45423031 110.42791855 -45.53523747 117.56979331 -54.51953125 128.36328125 C-56 130 -56 130 -58 131 C-58.33 131.99 -58.66 132.98 -59 134 C-59.66 134 -60.32 134 -61 134 C-61.061875 134.680625 -61.12375 135.36125 -61.1875 136.0625 C-62.2738808 139.99018442 -64.36710641 142.91346596 -67 146 C-67.33 146 -67.66 146 -68 146 C-69.00012005 126.94893264 -53.25585687 108.54482064 -41.36328125 94.99609375 C-39.84546807 93.31696709 -38.31826138 91.6462306 -36.77734375 89.98828125 C-34.84606455 87.92181037 -34.84606455 87.92181037 -33 85 C-32.34 85 -31.68 85 -31 85 C-30.6596875 84.16275391 -30.6596875 84.16275391 -30.3125 83.30859375 C-28.62565668 80.34155684 -26.48093414 78.40599603 -24 76.0625 C-8.89349662 61.34033521 3.66400568 43.08472741 4.5 21.375 C4.32306631 15.42560463 2.82446331 10.1799693 0.875 4.58203125 C0 2 0 2 0 0 Z " fill="#0F9EC0" transform="translate(233,139)"/>
<path d="M0 0 C1 3 1 3 -0.16015625 5.72265625 C-7.84295223 19.21093256 -17.40393971 31.34883557 -27.9375 42.734375 C-31.81756471 46.9965673 -35.38382814 51.51433458 -39 56 C-39.98360816 57.19203942 -40.96802389 58.38341281 -41.953125 59.57421875 C-58.64592445 79.8884444 -69.92489362 100.87245412 -67.7734375 127.83984375 C-67.5459687 129.89681164 -67.27806655 131.94925917 -67 134 C-73.60756047 133.23491405 -76.85005363 128.84873458 -81 124 C-95.20697786 104.75548816 -97.86443911 84.95713978 -94.4375 61.75390625 C-94.293125 60.84511719 -94.14875 59.93632812 -94 59 C-93.34 59.66 -92.68 60.32 -92 61 C-91.01 60.505 -91.01 60.505 -90 60 C-90.21148682 60.60223389 -90.42297363 61.20446777 -90.64086914 61.82495117 C-92.70554712 68.10625062 -93.51475154 73.71607687 -93.4375 80.3125 C-93.42992676 81.22894287 -93.42235352 82.14538574 -93.41455078 83.08959961 C-93.07717484 97.05868751 -87.87570073 110.20424972 -79 121 C-78.46375 121.9075 -77.9275 122.815 -77.375 123.75 C-76.1987496 126.12145809 -76.1987496 126.12145809 -74 127 C-74.32742187 125.96875 -74.65484375 124.9375 -74.9921875 123.875 C-76.54620612 117.65892551 -76.21236712 111.36435858 -76.125 105 C-76.11597656 103.74832031 -76.10695312 102.49664062 -76.09765625 101.20703125 C-76.07422716 98.1378199 -76.04142147 95.06901244 -76 92 C-75.01 91.505 -75.01 91.505 -74 91 C-74.01047363 91.64960693 -74.02094727 92.29921387 -74.03173828 92.96850586 C-74.07372962 95.95813001 -74.09946167 98.94769179 -74.125 101.9375 C-74.14175781 102.95908203 -74.15851563 103.98066406 -74.17578125 105.03320312 C-74.21618815 111.35688352 -73.62010013 116.88316527 -72 123 C-71.67 122.67 -71.34 122.34 -71 122 C-71.22427653 118.46192327 -71.58685394 114.94521596 -71.94140625 111.41796875 C-72.00016545 107.99034861 -71.68853455 106.84226634 -70 104 C-69.59758409 102.42341163 -69.22536226 100.83896688 -68.875 99.25 C-65.86271945 87.88548701 -58.97969391 71.65312928 -49 65 C-48.0563178 63.33282812 -47.11300904 61.66346408 -46.2578125 59.94921875 C-44.51627358 57.25037428 -42.30070799 55.23808126 -40 53 C-32.61313039 45.31739504 -25.61595959 37.3576168 -19 29 C-18.18789062 28.00613281 -17.37578125 27.01226562 -16.5390625 25.98828125 C-9.98924897 17.85778275 -4.89393365 9.20863361 0 0 Z " fill="#1B215A" transform="translate(258,223)"/>
<path d="M0 0 C1.87087434 4.91839922 -0.48154845 8.75879074 -2.3671875 13.375 C-7.62822308 25.05500243 -14.52012465 34.59450292 -22.66796875 44.38427734 C-24.35121269 46.42601276 -25.96079606 48.51891332 -27.5625 50.625 C-30.90373014 54.95713418 -34.45654056 59.0989784 -38.01049805 63.25634766 C-41.02937083 66.80358863 -43.90133369 70.40834459 -46.5859375 74.21875 C-48 76 -48 76 -50.3828125 78.3125 C-53.15801519 81.16226037 -55.36760504 84.16345656 -57.5 87.5 C-57.88800781 88.10513428 -58.27601563 88.71026855 -58.67578125 89.33374023 C-66.8229845 102.45543778 -70.49531435 117.75918071 -67.60302734 133.10644531 C-66.65936967 136.83106865 -65.41293973 140.42980408 -64 144 C-68.44861119 144 -68.80539024 143.72271026 -71.875 140.875 C-72.90753906 139.92560547 -72.90753906 139.92560547 -73.9609375 138.95703125 C-76.68400238 136.34351495 -79.36417099 133.70172474 -82 131 C-81.505 130.01 -81.505 130.01 -81 129 C-78.03 131.97 -75.06 134.94 -72 138 C-69.85144684 133.149206 -69.85144684 133.149206 -71 129 C-72.58530937 106.1559518 -62.4585914 87.12561536 -48 70 C-45.24851293 67.04178551 -42.33306368 64.26460974 -39.41796875 61.46875 C-36.67085927 58.66394679 -34.70436534 55.76627601 -32.65234375 52.44140625 C-30.51073034 49.27708383 -28.06060548 46.44868909 -25.5625 43.5625 C-14.22330184 30.38096733 -6.06146644 16.25272319 0 0 Z " fill="#2B1035" transform="translate(292,259)"/>
<path d="M0 0 C0.66 0 1.32 0 2 0 C3.59852218 7.35320201 2.82167193 14.37875985 -1.0625 20.9375 C-4.06844451 25.35641842 -7.5536486 29.41605718 -11.01171875 33.484375 C-12.70259231 35.62371207 -13.91472658 37.5160587 -15 40 C-15.99 39.67 -16.98 39.34 -18 39 C-19.88742175 33.33773474 -19.75888998 27.91372257 -17.5625 22.375 C-15.66029334 19.46414995 -13.28583786 17.46661704 -10.625 15.25 C-5.51152536 10.95637171 -2.80565811 5.98540397 0 0 Z " fill="#450D56" transform="translate(287,281)"/>
<path d="M0 0 C1 3 1 3 -0.16015625 5.72265625 C-7.84295223 19.21093256 -17.40393971 31.34883557 -27.9375 42.734375 C-31.81756471 46.9965673 -35.38382814 51.51433458 -39 56 C-39.98360816 57.19203942 -40.96802389 58.38341281 -41.953125 59.57421875 C-54.55430107 74.90916212 -65.80352332 91.79241451 -68 112 C-69.81386019 109.33255854 -70.00171645 108.02231383 -69.75 104.75 C-68.32784269 97.63921346 -66.62051235 91.56088932 -63.3125 85.125 C-62.9616333 84.43390137 -62.6107666 83.74280273 -62.24926758 83.03076172 C-54.96230116 68.97486744 -54.96230116 68.97486744 -49 65 C-48.0563178 63.33282812 -47.11300904 61.66346408 -46.2578125 59.94921875 C-44.51627358 57.25037428 -42.30070799 55.23808126 -40 53 C-32.61313039 45.31739504 -25.61595959 37.3576168 -19 29 C-18.18789062 28.00613281 -17.37578125 27.01226562 -16.5390625 25.98828125 C-9.98924897 17.85778275 -4.89393365 9.20863361 0 0 Z " fill="#131939" transform="translate(258,223)"/>
<path d="M0 0 C0.6953125 1.71484375 0.6953125 1.71484375 1 4 C-0.2578125 6.19140625 -0.2578125 6.19140625 -2.125 8.5625 C-11.85299454 21.76616524 -14.59674162 35.88486766 -13 52 C-12.13803853 56.48597468 -10.6792742 60.75683394 -9 65 C-13.44861119 65 -13.80539024 64.72271026 -16.875 61.875 C-17.56335938 61.24207031 -18.25171875 60.60914063 -18.9609375 59.95703125 C-21.68400238 57.34351495 -24.36417099 54.70172474 -27 52 C-26.67 51.34 -26.34 50.68 -26 50 C-23.03 52.97 -20.06 55.94 -17 59 C-14.85144684 54.149206 -14.85144684 54.149206 -16 50 C-17.33374109 30.78100948 -10.70958961 15.65799374 0 0 Z " fill="#2E1637" transform="translate(237,338)"/>
<path d="M0 0 C0.33 0 0.66 0 1 0 C0.98952637 0.64960693 0.97905273 1.29921387 0.96826172 1.96850586 C0.92627038 4.95813001 0.90053833 7.94769179 0.875 10.9375 C0.85824219 11.95908203 0.84148437 12.98066406 0.82421875 14.03320312 C0.78381185 20.35688352 1.37989987 25.88316527 3 32 C3.33 31.67 3.66 31.34 4 31 C3.90968426 28.64305046 3.75311872 26.28846418 3.5625 23.9375 C3.40974609 22.00197266 3.40974609 22.00197266 3.25390625 20.02734375 C3.17011719 19.02832031 3.08632812 18.02929688 3 17 C3.99 17 4.98 17 6 17 C6.06058594 18.12277344 6.12117187 19.24554688 6.18359375 20.40234375 C6.60294982 27.96340965 7.04339834 35.4838441 8 43 C5.5625 42.625 5.5625 42.625 3 42 C2.67 41.34 2.34 40.68 2 40 C2.99 39.505 2.99 39.505 4 39 C3.67 37.35 3.34 35.7 3 34 C2.34 34 1.68 34 1 34 C-0.63512699 29.69245096 -1.24775274 26.14220509 -1.23046875 21.54296875 C-1.22853516 20.34865234 -1.22660156 19.15433594 -1.22460938 17.92382812 C-1.20624023 16.0743457 -1.20624023 16.0743457 -1.1875 14.1875 C-1.18685547 12.93517578 -1.18621094 11.68285156 -1.18554688 10.39257812 C-1.14036515 1.14036515 -1.14036515 1.14036515 0 0 Z " fill="#16184A" transform="translate(183,314)"/>
<path d="M0 0 C1 3 1 3 -0.16015625 5.72265625 C-7.89364296 19.29992758 -17.54026263 31.55997537 -28.15625 43.0078125 C-30.54554432 45.58946526 -32.7769352 48.27495282 -35 51 C-35.66 50.67 -36.32 50.34 -37 50 C-36.45472656 49.40574219 -35.90945312 48.81148438 -35.34765625 48.19921875 C-29.67709362 41.96644649 -24.26014076 35.58182874 -19 29 C-18.18402344 28.00226563 -17.36804688 27.00453125 -16.52734375 25.9765625 C-9.98442268 17.84820726 -4.89118984 9.20347073 0 0 Z " fill="#102331" transform="translate(258,223)"/>
<path d="M0 0 C5.31391521 0.40398186 7.5836078 1.94864858 11.25 5.75 C12.10078125 6.61109375 12.9515625 7.4721875 13.828125 8.359375 C15.90485336 10.88431811 17.00059967 12.91296342 18 16 C14.33333333 12.33333333 10.66666667 8.66666667 7 5 C7.66 8.3 8.32 11.6 9 15 C8.01 14.67 7.02 14.34 6 14 C5.67 15.32 5.34 16.64 5 18 C4.89042969 17.33613281 4.78085937 16.67226562 4.66796875 15.98828125 C3.77387702 11.0089899 2.84210252 7.26315378 0 3 C0 2.01 0 1.02 0 0 Z " fill="#321042" transform="translate(267,181)"/>
<path d="M0 0 C0.33 0 0.66 0 1 0 C1.06058594 1.07121094 1.12117187 2.14242188 1.18359375 3.24609375 C1.26798537 4.64324391 1.35263406 6.04037857 1.4375 7.4375 C1.47681641 8.14455078 1.51613281 8.85160156 1.55664062 9.58007812 C1.47624438 13.08690419 1.47624438 13.08690419 3 16 C3.28796978 19.49220492 3.44903734 22.98467449 3.62109375 26.484375 C4.12634063 31.17223268 5.40130237 34.10195355 8 38 C8.60118637 39.33744105 9.16282755 40.69323288 9.6875 42.0625 C9.95949219 42.75472656 10.23148438 43.44695312 10.51171875 44.16015625 C11 46 11 46 10 48 C8.69242942 45.54906537 7.40430405 43.09064829 6.125 40.625 C5.76019531 39.94566406 5.39539063 39.26632812 5.01953125 38.56640625 C0.31510422 29.41415729 -0.30131214 20.53329177 -0.125 10.375 C-0.11597656 9.37082031 -0.10695312 8.36664063 -0.09765625 7.33203125 C-0.07437746 4.88775874 -0.04168487 2.44401592 0 0 Z " fill="#4F1B58" transform="translate(195,335)"/>
<path d="M0 0 C2.20844555 1.74835273 2.93950114 2.60675742 3.375 5.4375 C2.93332952 8.45558161 1.88964527 9.65683987 0 12 C-0.70514846 14.14733927 -0.70514846 14.14733927 -1 16 C-1.66 16 -2.32 16 -3 16 C-3 15.34 -3 14.68 -3 14 C-3.66 14 -4.32 14 -5 14 C-5.29036649 10.61884349 -5.44908891 7.37080851 -5 4 C-2.5 1.375 -2.5 1.375 0 0 Z " fill="#58126B" transform="translate(273,303)"/>
<path d="M0 0 C0.99 0.66 1.98 1.32 3 2 C2.07960937 2.4846875 1.15921875 2.969375 0.2109375 3.46875 C-15.45715811 11.34938786 -15.45715811 11.34938786 -30 21 C-30.66 20.67 -31.32 20.34 -32 20 C-23.64325042 10.9850816 -10.79621034 5.61462668 0 0 Z " fill="#215AA2" transform="translate(225,234)"/>
<path d="M0 0 C0.66 0 1.32 0 2 0 C2.33278764 6.81598387 2.24201565 11.92122066 -1 18 C-1.99 18 -2.98 18 -4 18 C-6 15 -6 15 -5.78515625 12.64453125 C-4.93751538 9.78954186 -3.81082316 7.32850607 -2.4375 4.6875 C-1.98246094 3.80449219 -1.52742188 2.92148437 -1.05859375 2.01171875 C-0.53458984 1.01591797 -0.53458984 1.01591797 0 0 Z " fill="#8F209D" transform="translate(286,282)"/>
<path d="M0 0 C0.66 0.33 1.32 0.66 2 1 C-3.20978262 5.84630941 -8.79373069 9.43624128 -14.88671875 13.09765625 C-18.3974283 15.24284515 -21.70144999 17.54526511 -25 20 C-25 18.68 -25 17.36 -25 16 C-23.68 15.34 -22.36 14.68 -21 14 C-21 13.34 -21 12.68 -21 12 C-20.154375 11.55269531 -19.30875 11.10539062 -18.4375 10.64453125 C-17.303125 10.03996094 -16.16875 9.43539063 -15 8.8125 C-14.40856201 8.49732422 -13.81712402 8.18214844 -13.20776367 7.85742188 C-9.81435915 6.03180635 -6.53342732 4.1135475 -3.3125 2 C-2.219375 1.34 -1.12625 0.68 0 0 Z " fill="#82168D" transform="translate(257,289)"/>
<path d="M0 0 C0.66 0.33 1.32 0.66 2 1 C1.46632813 1.57105469 0.93265625 2.14210938 0.3828125 2.73046875 C-4.9960307 8.58391576 -9.84021744 14.61661446 -14.54296875 21.01953125 C-17.15439046 24.18728127 -19.77905928 26.47825047 -23 29 C-21.38778424 20.77588813 -14.08066627 14.92001908 -8.26953125 9.39453125 C-6.05641791 7.05952527 -4.63913361 4.74728028 -3 2 C-2.01 1.34 -1.02 0.68 0 0 Z " fill="#281A32" transform="translate(261,311)"/>
<path d="M0 0 C0.66 0 1.32 0 2 0 C3.59852218 7.35320201 2.82167193 14.37875985 -1.0625 20.9375 C-4.06844451 25.35641842 -7.5536486 29.41605718 -11.01171875 33.484375 C-12.70259231 35.62371207 -13.91472658 37.5160587 -15 40 C-15.99 39.67 -16.98 39.34 -18 39 C-17.67 38.01 -17.34 37.02 -17 36 C-17 36.66 -17 37.32 -17 38 C-16.34 38 -15.68 38 -15 38 C-14.90332031 37.2575 -14.80664062 36.515 -14.70703125 35.75 C-13.90614264 32.63494152 -12.87298423 31.32119953 -10.6875 29 C-10.05714844 28.3090625 -9.42679687 27.618125 -8.77734375 26.90625 C-7.89755859 25.96265625 -7.89755859 25.96265625 -7 25 C-0.03566531 17.26185035 0.45037038 10.00823065 0 0 Z " fill="#291430" transform="translate(287,281)"/>
<path d="M0 0 C0.33 0.99 0.66 1.98 1 3 C0.36191406 3.61488281 -0.27617187 4.22976562 -0.93359375 4.86328125 C-1.75988281 5.67152344 -2.58617187 6.47976562 -3.4375 7.3125 C-4.26121094 8.11300781 -5.08492187 8.91351563 -5.93359375 9.73828125 C-8.19403477 11.90470808 -8.19403477 11.90470808 -9 15 C-9.99 15.66 -10.98 16.32 -12 17 C-12.4125 17.70125 -12.825 18.4025 -13.25 19.125 C-15.70534398 23.1587794 -18.83753845 26.50829587 -22 30 C-22 20.8579594 -8.45206496 8.51536093 -2.23046875 2.1796875 C-1.49441406 1.46039063 -0.75835937 0.74109375 0 0 Z " fill="#104F79" transform="translate(199,226)"/>
<path d="M0 0 C0.33 0 0.66 0 1 0 C2.34791547 9.09842942 2.28767175 17.33039247 0.625 26.375 C0.49899414 27.06529297 0.37298828 27.75558594 0.24316406 28.46679688 C-0.43511542 31.92077869 -1.20441426 34.95531114 -3 38 C-3.66 37.34 -4.32 36.68 -5 36 C-4.73663257 32.40064514 -3.75479219 29.31847817 -2.4921875 25.9765625 C-0.69464352 20.64473544 -0.44865262 15.52753751 -0.3125 9.9375 C-0.27833984 8.97650391 -0.24417969 8.01550781 -0.20898438 7.02539062 C-0.12743333 4.68371073 -0.05799034 2.34236137 0 0 Z " fill="#220B2C" transform="translate(296,221)"/>
<path d="M0 0 C2.5 0.25 2.5 0.25 4.5 2.25 C4.17028521 5.54714793 3.8773161 6.8726839 1.5 9.25 C-3.05555556 8.69444444 -3.05555556 8.69444444 -4.5 7.25 C-4.6875 4.8125 -4.6875 4.8125 -4.5 2.25 C-2.5 0.25 -2.5 0.25 0 0 Z " fill="#128B9A" transform="translate(296.5,265.75)"/>
<path d="M0 0 C2.5 0.25 2.5 0.25 4.5 2.25 C4.125 5.375 4.125 5.375 3.5 8.25 C1.16705225 8.29241723 -1.16702567 8.29092937 -3.5 8.25 C-4.5 7.25 -4.5 7.25 -4.6875 4.8125 C-4.42807033 1.26696114 -3.53871738 0.35387174 0 0 Z " fill="#0E5880" transform="translate(175.5,353.75)"/>
<path d="M0 0 C2.4375 0.1875 2.4375 0.1875 3.4375 1.1875 C3.625 4.125 3.625 4.125 3.4375 7.1875 C2.7775 7.8475 2.1175 8.5075 1.4375 9.1875 C-3.11805556 8.63194444 -3.11805556 8.63194444 -4.5625 7.1875 C-4.75 4.75 -4.75 4.75 -4.5625 2.1875 C-2.5625 0.1875 -2.5625 0.1875 0 0 Z " fill="#178A93" transform="translate(251.5625,334.8125)"/>
<path d="M0 0 C3.66428835 3.66428835 3.09047676 8.68328301 3.1875 13.625 C2.97581736 30.62311568 2.97581736 30.62311568 -1.625 35.25 C-2.40875 35.8275 -3.1925 36.405 -4 37 C-3.80664062 36.40574219 -3.61328125 35.81148437 -3.4140625 35.19921875 C0.42429828 22.98107032 1.17487172 12.65368596 0 0 Z " fill="#27DBE8" transform="translate(259,171)"/>
<path d="M0 0 C1.1055189 0.93590504 2.20935453 1.87379858 3.3125 2.8125 C3.92738281 3.33457031 4.54226562 3.85664063 5.17578125 4.39453125 C6.85424679 5.87172469 8.43882034 7.40039131 10 9 C10.99 8.01 11.98 7.02 13 6 C13.66 7.98 14.32 9.96 15 12 C15.66 12 16.32 12 17 12 C17.33 12.99 17.66 13.98 18 15 C13.55138881 15 13.19460976 14.72271026 10.125 11.875 C9.43664062 11.23949219 8.74828125 10.60398437 8.0390625 9.94921875 C7.02972656 8.98435547 7.02972656 8.98435547 6 8 C5.38898438 7.42894531 4.77796875 6.85789062 4.1484375 6.26953125 C2.71675674 4.89552484 1.35154149 3.4529071 0 2 C0 1.34 0 0.68 0 0 Z " fill="#5D1F5D" transform="translate(210,388)"/>
<path d="M0 0 C0.33 0.99 0.66 1.98 1 3 C-0.14887132 4.28812845 -1.30020674 5.57411021 -2.4609375 6.8515625 C-5.28046669 10.7874535 -6.86510881 15.38875243 -8.66796875 19.85546875 C-10 23 -10 23 -12 26 C-11.71311275 18.99995111 -10.49595688 14.08973134 -7 8 C-6.34 8 -5.68 8 -5 8 C-4.731875 7.4225 -4.46375 6.845 -4.1875 6.25 C-2.98280141 3.9674132 -1.59201885 2.0262058 0 0 Z " fill="#BA2ABF" transform="translate(211,323)"/>
<path d="M0 0 C3.79502636 5.69253955 3.18296773 11.94085909 3.1875 18.5625 C3.19974609 19.50802734 3.21199219 20.45355469 3.22460938 21.42773438 C3.22654297 22.33974609 3.22847656 23.25175781 3.23046875 24.19140625 C3.23457764 25.01842041 3.23868652 25.84543457 3.24291992 26.69750977 C3 29 3 29 1 33 C1 29.04 1 25.08 1 21 C0.67 21 0.34 21 0 21 C0 14.07 0 7.14 0 0 Z " fill="#0F89A6" transform="translate(261,175)"/>
<path d="M0 0 C0.66 0.66 1.32 1.32 2 2 C2.66 1.67 3.32 1.34 4 1 C3.79503906 1.66386719 3.59007812 2.32773437 3.37890625 3.01171875 C3.10949219 3.89472656 2.84007812 4.77773438 2.5625 5.6875 C2.29566406 6.55761719 2.02882812 7.42773438 1.75390625 8.32421875 C0.34346433 13.33019137 -0.22280767 18.12006007 -0.5625 23.3125 C-0.64628906 24.56675781 -0.73007813 25.82101562 -0.81640625 27.11328125 C-0.87699219 28.06589844 -0.93757812 29.01851563 -1 30 C-1.33 30 -1.66 30 -2 30 C-2.2615556 19.75573889 -1.60781635 10.12062972 0 0 Z " fill="#0E134C" transform="translate(164,282)"/>
<path d="M0 0 C0.33 0.66 0.66 1.32 1 2 C0.34 2 -0.32 2 -1 2 C-1.1546875 2.9590625 -1.1546875 2.9590625 -1.3125 3.9375 C-1.539375 4.618125 -1.76625 5.29875 -2 6 C-2.99 6.33 -3.98 6.66 -5 7 C-5.33 7.825 -5.66 8.65 -6 9.5 C-6.495 10.7375 -6.495 10.7375 -7 12 C-7.99 12.33 -8.98 12.66 -10 13 C-11.20882096 15.00016466 -11.20882096 15.00016466 -12 17 C-12.66 16.67 -13.32 16.34 -14 16 C-12.54970675 13.82754427 -11.09044056 11.66219911 -9.625 9.5 C-9.2125 8.87996094 -8.8 8.25992188 -8.375 7.62109375 C-7.30100332 6.04474379 -6.15511468 4.51791243 -5 3 C-4.34 3 -3.68 3 -3 3 C-1.37485532 1.54166642 -1.37485532 1.54166642 0 0 Z " fill="#1BB3D0" transform="translate(259,204)"/>
<path d="M0 0 C1.27862789 4.16733819 0.39213351 6.32629151 -1.25 10.375 C-1.68828125 11.47585938 -2.1265625 12.57671875 -2.578125 13.7109375 C-3.94438219 16.87134562 -5.42729061 19.9378423 -7 23 C-8.21760043 19.53690981 -7.80744321 17.77694761 -6.34765625 14.453125 C-5.98349609 13.60878906 -5.61933594 12.76445312 -5.24414062 11.89453125 C-4.85419922 11.02183594 -4.46425781 10.14914062 -4.0625 9.25 C-3.67642578 8.36183594 -3.29035156 7.47367187 -2.89257812 6.55859375 C-1.93849057 4.36772604 -0.97405887 2.18204402 0 0 Z " fill="#21102C" transform="translate(292,259)"/>
<path d="M0 0 C0.66 0 1.32 0 2 0 C0.47901178 4.32437828 -2.79931239 6.34330382 -6.4375 8.8125 C-7.31631836 9.44188477 -7.31631836 9.44188477 -8.21289062 10.08398438 C-9.93359375 11.26953125 -9.93359375 11.26953125 -13 13 C-13.99 12.67 -14.98 12.34 -16 12 C-15.030625 11.38125 -14.06125 10.7625 -13.0625 10.125 C-9.97164638 8.34321154 -9.97164638 8.34321154 -9 6 C-7 5 -5 4 -3 3 C-1.98198643 2.01834406 -0.9753197 1.02408568 0 0 Z " fill="#229BC5" transform="translate(242,222)"/>
<path d="M0 0 C1.32 0 2.64 0 4 0 C4.3396019 1.87387477 4.67138691 3.74916697 5 5.625 C5.185625 6.66914063 5.37125 7.71328125 5.5625 8.7890625 C5.98715797 11.90574865 6.07545206 14.85930812 6 18 C5.67 18 5.34 18 5 18 C4.89042969 17.33613281 4.78085937 16.67226562 4.66796875 15.98828125 C3.77387702 11.0089899 2.84210252 7.26315378 0 3 C0 2.01 0 1.02 0 0 Z " fill="#17131F" transform="translate(267,181)"/>
<path d="M0 0 C0.66 0 1.32 0 2 0 C2 3.63 2 7.26 2 11 C0.68 11.33 -0.64 11.66 -2 12 C-2.33 11.01 -2.66 10.02 -3 9 C-2.34 9 -1.68 9 -1 9 C-0.67 6.03 -0.34 3.06 0 0 Z " fill="#B02EAF" transform="translate(286,282)"/>
<path d="M0 0 C0.99 0.66 1.98 1.32 3 2 C0.89983377 3.17441535 -1.20458755 4.33964012 -3.3125 5.5 C-3.90740234 5.83386719 -4.50230469 6.16773438 -5.11523438 6.51171875 C-7.95828844 8.06825114 -9.70660988 9 -13 9 C-13 8.34 -13 7.68 -13 7 C-8.71 4.69 -4.42 2.38 0 0 Z " fill="#1C78AE" transform="translate(225,234)"/>
<path d="M0 0 C0 0.99 0 1.98 0 3 C-2.3359375 5.2265625 -2.3359375 5.2265625 -5.375 7.625 C-6.87160156 8.81996094 -6.87160156 8.81996094 -8.3984375 10.0390625 C-11 12 -11 12 -13 13 C-12.68940776 9.84588221 -12.46019189 8.40610559 -10.0390625 6.26953125 C-9.24242187 5.78871094 -8.44578125 5.30789063 -7.625 4.8125 C-6.83351563 4.32394531 -6.04203125 3.83539063 -5.2265625 3.33203125 C-4.49179687 2.89246094 -3.75703125 2.45289063 -3 2 C-2.01 1.34 -1.02 0.68 0 0 Z " fill="#671076" transform="translate(270,280)"/>
<path d="M0 0 C1.65 0.33 3.3 0.66 5 1 C5.33 1.99 5.66 2.98 6 4 C5.34 4.66 4.68 5.32 4 6 C1.375 5.625 1.375 5.625 -1 5 C-0.67 3.35 -0.34 1.7 0 0 Z " fill="#0F6675" transform="translate(240,353)"/>
<path d="M0 0 C0.99 0.33 1.98 0.66 3 1 C0.36 2.98 -2.28 4.96 -5 7 C-5 6.01 -5 5.02 -5 4 C-2.6875 1.75 -2.6875 1.75 0 0 Z M-8 7 C-7.34 7.33 -6.68 7.66 -6 8 C-7.65 9.98 -9.3 11.96 -11 14 C-11 10.48283697 -10.17554415 9.62878252 -8 7 Z " fill="#204392" transform="translate(189,256)"/>
<path d="M0 0 C0.33 0.66 0.66 1.32 1 2 C-1.21512649 8.05467907 -5.65454151 12.35521064 -10 17 C-10 13.71752569 -9.66923327 13.17433033 -7.8125 10.64453125 C-7.13574219 9.71157227 -7.13574219 9.71157227 -6.4453125 8.75976562 C-5.96835938 8.11716797 -5.49140625 7.47457031 -5 6.8125 C-4.52304688 6.15830078 -4.04609375 5.50410156 -3.5546875 4.83007812 C-2.37610725 3.21542318 -1.18886818 1.60709503 0 0 Z " fill="#280C32" transform="translate(259,237)"/>
<path d="M0 0 C2.86724686 0.57344937 3.8614515 0.8614515 6 3 C5.67 3.99 5.34 4.98 5 6 C4.67 6 4.34 6 4 6 C4 7.98 4 9.96 4 12 C0 4.28571429 0 4.28571429 0 0 Z " fill="#21BDC2" transform="translate(235,140)"/>
<path d="M0 0 C3 3.75 3 3.75 3 6 C3.99 6.33 4.98 6.66 6 7 C5.67 7.66 5.34 8.32 5 9 C3.68 9 2.36 9 1 9 C-0.875 6.75 -0.875 6.75 -2 4 C-1.1875 1.6875 -1.1875 1.6875 0 0 Z " fill="#68137A" transform="translate(279,294)"/>
<path d="M0 0 C0.66 0.33 1.32 0.66 2 1 C1.34 4.63 0.68 8.26 0 12 C-0.99 11.34 -1.98 10.68 -3 10 C-2.49287967 6.28111761 -1.88391785 3.26545761 0 0 Z " fill="#2A0436" transform="translate(294,247)"/>
<path d="M0 0 C1.65 0.33 3.3 0.66 5 1 C4.67 2.65 4.34 4.3 4 6 C2.68 6 1.36 6 0 6 C-1.125 2.25 -1.125 2.25 0 0 Z " fill="#0F5962" transform="translate(181,370)"/>
<path d="M0 0 C0.66 0.33 1.32 0.66 2 1 C-1.3 4.3 -4.6 7.6 -8 11 C-8.66 10.67 -9.32 10.34 -10 10 C-10 9.34 -10 8.68 -10 8 C-4.52380952 3 -4.52380952 3 -2 3 C-2 2.34 -2 1.68 -2 1 C-1.34 0.67 -0.68 0.34 0 0 Z " fill="#A322AA" transform="translate(221,313)"/>
<path d="M0 0 C1.30211046 3.90633137 0.47812346 6.19538173 -0.4375 10.1875 C-0.72496094 11.45980469 -1.01242188 12.73210937 -1.30859375 14.04296875 C-1.53675781 15.01878906 -1.76492187 15.99460937 -2 17 C-4.29541031 12.94093467 -4.02690567 10.58157916 -3 6 C-1.4375 2.5625 -1.4375 2.5625 0 0 Z " fill="#121328" transform="translate(192,318)"/>
<path d="M0 0 C2 0.25 2 0.25 4 1 C4.33 1.99 4.66 2.98 5 4 C4.34 4.66 3.68 5.32 3 6 C1.68 6 0.36 6 -1 6 C-1.042721 4.33388095 -1.04063832 2.66617115 -1 1 C-0.67 0.67 -0.34 0.34 0 0 Z " fill="#156A73" transform="translate(278,321)"/>
<path d="M0 0 C1.32 0.33 2.64 0.66 4 1 C3.67 3.64 3.34 6.28 3 9 C2.34 9 1.68 9 1 9 C-0.4783226 6.04335481 -0.06032783 3.25770263 0 0 Z " fill="#881A9B" transform="translate(269,310)"/>
<path d="M0 0 C1 2 1 2 0.51171875 3.84765625 C0.10373047 4.94400391 0.10373047 4.94400391 -0.3125 6.0625 C-1.93504194 10.6472974 -3.04283895 15.23671618 -4 20 C-4.33 20 -4.66 20 -5 20 C-5.62215842 13.15625736 -3.48688289 7.33206327 -1 1 C-0.67 0.67 -0.34 0.34 0 0 Z " fill="#152073" transform="translate(189,294)"/>
<path d="M0 0 C0.33 0.66 0.66 1.32 1 2 C0.67 2.99 0.34 3.98 0 5 C-0.598125 5.28875 -1.19625 5.5775 -1.8125 5.875 C-4.6756147 7.34745899 -6.02548995 9.49895394 -8 12 C-8.66 12 -9.32 12 -10 12 C-10 11.34 -10 10.68 -10 10 C-9.34 10 -8.68 10 -8 10 C-7.79375 9.46375 -7.5875 8.9275 -7.375 8.375 C-5.42003056 4.9982346 -2.81776305 2.69525161 0 0 Z " fill="#0E4E6C" transform="translate(210,214)"/>
<path d="M0 0 C0.33 0.99 0.66 1.98 1 3 C-0.86759004 6.51968892 -2.1486353 8.57431765 -5.75 10.375 C-6.4925 10.58125 -7.235 10.7875 -8 11 C-6.63629701 8.00779732 -5.05091917 5.70973471 -2.875 3.25 C-2.33617187 2.63640625 -1.79734375 2.0228125 -1.2421875 1.390625 C-0.62730469 0.70226562 -0.62730469 0.70226562 0 0 Z " fill="#391245" transform="translate(267,302)"/>
<path d="M0 0 C0.66 0.33 1.32 0.66 2 1 C0.90081184 1.98475214 -0.2045602 2.96260473 -1.3125 3.9375 C-1.92738281 4.48277344 -2.54226562 5.02804687 -3.17578125 5.58984375 C-5 7 -5 7 -8 8 C-8.66 7.34 -9.32 6.68 -10 6 C-8.3811004 4.96951963 -6.75467511 3.95085322 -5.125 2.9375 C-4.22007812 2.36902344 -3.31515625 1.80054688 -2.3828125 1.21484375 C-1.20332031 0.61349609 -1.20332031 0.61349609 0 0 Z " fill="#7A1584" transform="translate(257,289)"/>
<path d="M0 0 C0.66 0.33 1.32 0.66 2 1 C1.63076923 8.26153846 1.63076923 8.26153846 -1.5625 12 C-2.366875 12.66 -3.17125 13.32 -4 14 C-3.79503906 13.32453125 -3.59007812 12.6490625 -3.37890625 11.953125 C-3.10949219 11.06109375 -2.84007812 10.1690625 -2.5625 9.25 C-2.16224609 7.92742187 -2.16224609 7.92742187 -1.75390625 6.578125 C-1.11531506 4.39434165 -0.53224167 2.21164502 0 0 Z " fill="#22CDE1" transform="translate(259,194)"/>
<path d="M0 0 C0.33 0.66 0.66 1.32 1 2 C0.06981474 3.46300982 -0.86944027 4.92025579 -1.8125 6.375 C-2.33457031 7.18710938 -2.85664063 7.99921875 -3.39453125 8.8359375 C-5 11 -5 11 -8 13 C-6.40956621 7.91061189 -3.2553049 4.12543357 0 0 Z " fill="#113762" transform="translate(184,243)"/>
<path d="M0 0 C-1.52701044 3.05402088 -3.95157912 3.65869481 -7 5 C-7.99 5 -8.98 5 -10 5 C-10 4.34 -10 3.68 -10 3 C-3.375 -1.125 -3.375 -1.125 0 0 Z " fill="#1E67A7" transform="translate(213,243)"/>
<path d="M0 0 C1.62484861 2.43727292 2.65689075 4.37286123 3.6875 7.0625 C3.95949219 7.75472656 4.23148438 8.44695312 4.51171875 9.16015625 C5 11 5 11 4 13 C1.04952165 8.38987758 -0.5497272 5.63470383 0 0 Z " fill="#782379" transform="translate(201,370)"/>
<path d="M0 0 C0.33 0.99 0.66 1.98 1 3 C-0.62339805 4.70884005 -2.29319053 6.37446717 -4 8 C-4.66 8 -5.32 8 -6 8 C-4.55746343 4.63408134 -2.66735273 2.48952921 0 0 Z " fill="#0F8BA0" transform="translate(229,192)"/>
<path d="M0 0 C2.83374881 3.20336822 3.5205537 5.78087253 4 10 C3.01 9.67 2.02 9.34 1 9 C-0.4783226 6.04335481 -0.06032783 3.25770263 0 0 Z " fill="#2D0736" transform="translate(272,186)"/>
<path d="M0 0 C1.74627478 2.61941217 2.38722388 4.03824877 3 7 C0.5625 6.1875 0.5625 6.1875 -2 5 C-2.33 4.01 -2.66 3.02 -3 2 C-2.34 2 -1.68 2 -1 2 C-0.67 1.34 -0.34 0.68 0 0 Z " fill="#1E2464" transform="translate(185,348)"/>
<path d="M0 0 C0.66 0.33 1.32 0.66 2 1 C-1 8.57142857 -1 8.57142857 -4 11 C-3.39301257 6.87248551 -1.96189209 3.6678852 0 0 Z " fill="#172A7B" transform="translate(194,283)"/>
<path d="M0 0 C1.32 0.33 2.64 0.66 4 1 C-0.75 5.875 -0.75 5.875 -3 7 C-2.38722388 4.03824877 -1.74627478 2.61941217 0 0 Z " fill="#201326" transform="translate(241,333)"/>
<path d="M0 0 C0.33 0.99 0.66 1.98 1 3 C-0.21484375 4.82421875 -0.21484375 4.82421875 -1.9375 6.6875 C-2.50339844 7.31011719 -3.06929687 7.93273437 -3.65234375 8.57421875 C-4.09707031 9.04472656 -4.54179687 9.51523437 -5 10 C-5.33 9.34 -5.66 8.68 -6 8 C-4.02 5.36 -2.04 2.72 0 0 Z " fill="#C12EC5" transform="translate(211,323)"/>
<path d="M0 0 C0.66 0.33 1.32 0.66 2 1 C0.38405168 3.04119788 -1.2856382 5.04072937 -3 7 C-3.66 7 -4.32 7 -5 7 C-3.75023244 3.34683329 -3.32901247 2.21934164 0 0 Z " fill="#23132A" transform="translate(261,311)"/>
<path d="M0 0 C2.475 0.495 2.475 0.495 5 1 C5.33 1.99 5.66 2.98 6 4 C5.34 4.66 4.68 5.32 4 6 C4 5.01 4 4.02 4 3 C2.68 2.67 1.36 2.34 0 2 C0 1.34 0 0.68 0 0 Z " fill="#701485" transform="translate(269,308)"/>
<path d="M0 0 C1.125 3.75 1.125 3.75 0 6 C-2.0625 6.625 -2.0625 6.625 -4 7 C-2.92598892 4.08482708 -2.22189824 2.22189824 0 0 Z " fill="#4F0F58" transform="translate(213,295)"/>
</svg>
